<mxfile host="app.diagrams.net" modified="2023-02-19T09:32:29.469Z" agent="5.0 (Macintosh; Intel Mac OS X 10_15_7) AppleWebKit/537.36 (KHTML, like Gecko) Chrome/109.0.0.0 Safari/537.36" etag="FoO9OnnZ0rvFYDbU_e6p" version="20.8.20" type="github">
  <diagram name="第 1 页" id="17EgV2_MKky6RjYFEmGf">
    <mxGraphModel dx="926" dy="800" grid="1" gridSize="10" guides="1" tooltips="1" connect="1" arrows="1" fold="1" page="1" pageScale="1" pageWidth="827" pageHeight="1169" math="0" shadow="0">
      <root>
        <mxCell id="0" />
        <mxCell id="1" parent="0" />
        <mxCell id="GQzpuYuDoWvNrVL3nzEa-1" value="区块链应用" style="ellipse;whiteSpace=wrap;html=1;" parent="1" vertex="1">
          <mxGeometry x="354" y="71" width="120" height="80" as="geometry" />
        </mxCell>
        <mxCell id="GQzpuYuDoWvNrVL3nzEa-2" value="" style="rounded=1;whiteSpace=wrap;html=1;dashed=1;dashPattern=8 8;" parent="1" vertex="1">
          <mxGeometry x="210" y="360" width="470" height="140" as="geometry" />
        </mxCell>
        <mxCell id="GQzpuYuDoWvNrVL3nzEa-4" value="" style="rounded=1;whiteSpace=wrap;html=1;dashed=1;dashPattern=8 8;" parent="1" vertex="1">
          <mxGeometry x="220" y="370" width="470" height="140" as="geometry" />
        </mxCell>
        <mxCell id="GQzpuYuDoWvNrVL3nzEa-5" value="" style="rounded=1;whiteSpace=wrap;html=1;" parent="1" vertex="1">
          <mxGeometry x="230" y="380" width="470" height="140" as="geometry" />
        </mxCell>
        <mxCell id="GQzpuYuDoWvNrVL3nzEa-6" value="Node" style="text;strokeColor=none;align=center;fillColor=none;html=1;verticalAlign=middle;whiteSpace=wrap;rounded=0;" parent="1" vertex="1">
          <mxGeometry x="425" y="375" width="60" height="30" as="geometry" />
        </mxCell>
        <mxCell id="GQzpuYuDoWvNrVL3nzEa-7" value="Api 规范接口" style="rounded=1;whiteSpace=wrap;html=1;dashed=1;" parent="1" vertex="1">
          <mxGeometry x="1" y="252" width="159" height="74" as="geometry" />
        </mxCell>
        <mxCell id="GQzpuYuDoWvNrVL3nzEa-8" value="" style="rounded=1;whiteSpace=wrap;html=1;dashed=1;" parent="1" vertex="1">
          <mxGeometry x="260" y="394" width="160" height="116" as="geometry" />
        </mxCell>
        <mxCell id="GQzpuYuDoWvNrVL3nzEa-9" value="节点api客户端" style="rounded=1;whiteSpace=wrap;html=1;dashed=1;" parent="1" vertex="1">
          <mxGeometry x="279.5" y="400" width="117.5" height="30" as="geometry" />
        </mxCell>
        <mxCell id="GQzpuYuDoWvNrVL3nzEa-12" style="edgeStyle=orthogonalEdgeStyle;rounded=0;orthogonalLoop=1;jettySize=auto;html=1;" parent="1" source="GQzpuYuDoWvNrVL3nzEa-10" target="GQzpuYuDoWvNrVL3nzEa-7" edge="1">
          <mxGeometry relative="1" as="geometry" />
        </mxCell>
        <mxCell id="GQzpuYuDoWvNrVL3nzEa-10" value="Query Api" style="rounded=1;whiteSpace=wrap;html=1;dashed=1;rotation=90;" parent="1" vertex="1">
          <mxGeometry x="279.5" y="462" width="50" height="33" as="geometry" />
        </mxCell>
        <mxCell id="f9g2CgTs31rNYREbiNiR-1" style="edgeStyle=orthogonalEdgeStyle;rounded=0;orthogonalLoop=1;jettySize=auto;html=1;entryX=0.25;entryY=1;entryDx=0;entryDy=0;" edge="1" parent="1" source="GQzpuYuDoWvNrVL3nzEa-11" target="GQzpuYuDoWvNrVL3nzEa-7">
          <mxGeometry relative="1" as="geometry" />
        </mxCell>
        <mxCell id="GQzpuYuDoWvNrVL3nzEa-11" value="Tx APi" style="rounded=1;whiteSpace=wrap;html=1;dashed=1;rotation=90;" parent="1" vertex="1">
          <mxGeometry x="329.5" y="454" width="70" height="32" as="geometry" />
        </mxCell>
        <mxCell id="GQzpuYuDoWvNrVL3nzEa-14" value="区块链节点" style="rounded=1;whiteSpace=wrap;html=1;dashed=1;" parent="1" vertex="1">
          <mxGeometry x="470" y="409" width="130" height="86" as="geometry" />
        </mxCell>
        <mxCell id="GQzpuYuDoWvNrVL3nzEa-15" value="区块链网络" style="rounded=1;whiteSpace=wrap;html=1;dashed=1;" parent="1" vertex="1">
          <mxGeometry x="720" y="410" width="130" height="86" as="geometry" />
        </mxCell>
        <mxCell id="GQzpuYuDoWvNrVL3nzEa-16" value="" style="endArrow=classic;html=1;rounded=0;entryX=0;entryY=0.25;entryDx=0;entryDy=0;exitX=1;exitY=0.25;exitDx=0;exitDy=0;" parent="1" source="GQzpuYuDoWvNrVL3nzEa-8" target="GQzpuYuDoWvNrVL3nzEa-14" edge="1">
          <mxGeometry width="50" height="50" relative="1" as="geometry">
            <mxPoint x="430" y="430" as="sourcePoint" />
            <mxPoint x="440" y="390" as="targetPoint" />
          </mxGeometry>
        </mxCell>
        <mxCell id="GQzpuYuDoWvNrVL3nzEa-17" value="" style="endArrow=classic;html=1;rounded=0;entryX=1;entryY=0.75;entryDx=0;entryDy=0;exitX=0;exitY=0.75;exitDx=0;exitDy=0;" parent="1" source="GQzpuYuDoWvNrVL3nzEa-14" target="GQzpuYuDoWvNrVL3nzEa-8" edge="1">
          <mxGeometry width="50" height="50" relative="1" as="geometry">
            <mxPoint x="360" y="520" as="sourcePoint" />
            <mxPoint x="410" y="470" as="targetPoint" />
          </mxGeometry>
        </mxCell>
        <mxCell id="GQzpuYuDoWvNrVL3nzEa-18" value="" style="endArrow=classic;startArrow=classic;html=1;rounded=0;entryX=0;entryY=0.5;entryDx=0;entryDy=0;exitX=1;exitY=0.5;exitDx=0;exitDy=0;" parent="1" source="GQzpuYuDoWvNrVL3nzEa-14" target="GQzpuYuDoWvNrVL3nzEa-15" edge="1">
          <mxGeometry width="50" height="50" relative="1" as="geometry">
            <mxPoint x="550" y="610" as="sourcePoint" />
            <mxPoint x="600" y="560" as="targetPoint" />
          </mxGeometry>
        </mxCell>
        <mxCell id="GQzpuYuDoWvNrVL3nzEa-25" style="edgeStyle=orthogonalEdgeStyle;rounded=0;orthogonalLoop=1;jettySize=auto;html=1;exitX=0.5;exitY=1;exitDx=0;exitDy=0;entryX=0.34;entryY=0;entryDx=0;entryDy=0;entryPerimeter=0;" parent="1" source="GQzpuYuDoWvNrVL3nzEa-20" target="GQzpuYuDoWvNrVL3nzEa-2" edge="1">
          <mxGeometry relative="1" as="geometry" />
        </mxCell>
        <mxCell id="GQzpuYuDoWvNrVL3nzEa-26" style="edgeStyle=orthogonalEdgeStyle;rounded=0;orthogonalLoop=1;jettySize=auto;html=1;" parent="1" source="GQzpuYuDoWvNrVL3nzEa-20" edge="1">
          <mxGeometry relative="1" as="geometry">
            <mxPoint x="280" y="370" as="targetPoint" />
          </mxGeometry>
        </mxCell>
        <mxCell id="GQzpuYuDoWvNrVL3nzEa-27" style="edgeStyle=orthogonalEdgeStyle;rounded=0;orthogonalLoop=1;jettySize=auto;html=1;entryX=0.27;entryY=0.011;entryDx=0;entryDy=0;entryPerimeter=0;" parent="1" source="GQzpuYuDoWvNrVL3nzEa-20" target="GQzpuYuDoWvNrVL3nzEa-5" edge="1">
          <mxGeometry relative="1" as="geometry" />
        </mxCell>
        <mxCell id="f9g2CgTs31rNYREbiNiR-5" style="edgeStyle=orthogonalEdgeStyle;rounded=0;orthogonalLoop=1;jettySize=auto;html=1;entryX=1;entryY=0.5;entryDx=0;entryDy=0;" edge="1" parent="1" source="GQzpuYuDoWvNrVL3nzEa-20" target="GQzpuYuDoWvNrVL3nzEa-7">
          <mxGeometry relative="1" as="geometry" />
        </mxCell>
        <mxCell id="GQzpuYuDoWvNrVL3nzEa-20" value="节点Api服务" style="rounded=1;whiteSpace=wrap;html=1;dashed=1;" parent="1" vertex="1">
          <mxGeometry x="220" y="259" width="120" height="60" as="geometry" />
        </mxCell>
        <mxCell id="GQzpuYuDoWvNrVL3nzEa-28" style="edgeStyle=orthogonalEdgeStyle;rounded=0;orthogonalLoop=1;jettySize=auto;html=1;exitX=0.5;exitY=1;exitDx=0;exitDy=0;entryX=0.415;entryY=0.004;entryDx=0;entryDy=0;entryPerimeter=0;" parent="1" source="GQzpuYuDoWvNrVL3nzEa-21" target="GQzpuYuDoWvNrVL3nzEa-2" edge="1">
          <mxGeometry relative="1" as="geometry" />
        </mxCell>
        <mxCell id="GQzpuYuDoWvNrVL3nzEa-29" style="edgeStyle=orthogonalEdgeStyle;rounded=0;orthogonalLoop=1;jettySize=auto;html=1;entryX=0.413;entryY=0;entryDx=0;entryDy=0;entryPerimeter=0;" parent="1" source="GQzpuYuDoWvNrVL3nzEa-21" target="GQzpuYuDoWvNrVL3nzEa-4" edge="1">
          <mxGeometry relative="1" as="geometry" />
        </mxCell>
        <mxCell id="GQzpuYuDoWvNrVL3nzEa-30" style="edgeStyle=orthogonalEdgeStyle;rounded=0;orthogonalLoop=1;jettySize=auto;html=1;entryX=0.574;entryY=0;entryDx=0;entryDy=0;entryPerimeter=0;" parent="1" source="GQzpuYuDoWvNrVL3nzEa-21" target="GQzpuYuDoWvNrVL3nzEa-5" edge="1">
          <mxGeometry relative="1" as="geometry" />
        </mxCell>
        <mxCell id="GQzpuYuDoWvNrVL3nzEa-21" value="节点Api服务" style="rounded=1;whiteSpace=wrap;html=1;dashed=1;" parent="1" vertex="1">
          <mxGeometry x="354" y="259" width="120" height="60" as="geometry" />
        </mxCell>
        <mxCell id="GQzpuYuDoWvNrVL3nzEa-31" style="edgeStyle=orthogonalEdgeStyle;rounded=0;orthogonalLoop=1;jettySize=auto;html=1;exitX=0.5;exitY=1;exitDx=0;exitDy=0;entryX=0.702;entryY=0;entryDx=0;entryDy=0;entryPerimeter=0;" parent="1" source="GQzpuYuDoWvNrVL3nzEa-22" target="GQzpuYuDoWvNrVL3nzEa-2" edge="1">
          <mxGeometry relative="1" as="geometry" />
        </mxCell>
        <mxCell id="GQzpuYuDoWvNrVL3nzEa-32" style="edgeStyle=orthogonalEdgeStyle;rounded=0;orthogonalLoop=1;jettySize=auto;html=1;entryX=0.75;entryY=0;entryDx=0;entryDy=0;" parent="1" source="GQzpuYuDoWvNrVL3nzEa-22" target="GQzpuYuDoWvNrVL3nzEa-4" edge="1">
          <mxGeometry relative="1" as="geometry" />
        </mxCell>
        <mxCell id="GQzpuYuDoWvNrVL3nzEa-33" style="edgeStyle=orthogonalEdgeStyle;rounded=0;orthogonalLoop=1;jettySize=auto;html=1;entryX=0.851;entryY=0;entryDx=0;entryDy=0;entryPerimeter=0;" parent="1" source="GQzpuYuDoWvNrVL3nzEa-22" target="GQzpuYuDoWvNrVL3nzEa-5" edge="1">
          <mxGeometry relative="1" as="geometry" />
        </mxCell>
        <mxCell id="GQzpuYuDoWvNrVL3nzEa-22" value="节点Api服务" style="rounded=1;whiteSpace=wrap;html=1;dashed=1;" parent="1" vertex="1">
          <mxGeometry x="500" y="259" width="120" height="60" as="geometry" />
        </mxCell>
        <mxCell id="GQzpuYuDoWvNrVL3nzEa-23" value="Nodes Api 网关" style="rounded=1;whiteSpace=wrap;html=1;dashed=1;" parent="1" vertex="1">
          <mxGeometry x="354" y="171" width="120" height="60" as="geometry" />
        </mxCell>
        <mxCell id="GQzpuYuDoWvNrVL3nzEa-24" value="" style="endArrow=classic;startArrow=classic;html=1;rounded=0;exitX=0.5;exitY=0;exitDx=0;exitDy=0;entryX=0.5;entryY=1;entryDx=0;entryDy=0;" parent="1" source="GQzpuYuDoWvNrVL3nzEa-23" target="GQzpuYuDoWvNrVL3nzEa-1" edge="1">
          <mxGeometry width="50" height="50" relative="1" as="geometry">
            <mxPoint x="370" y="191" as="sourcePoint" />
            <mxPoint x="420" y="141" as="targetPoint" />
          </mxGeometry>
        </mxCell>
        <mxCell id="GQzpuYuDoWvNrVL3nzEa-34" value="" style="endArrow=classic;startArrow=classic;html=1;rounded=0;entryX=0.5;entryY=1;entryDx=0;entryDy=0;" parent="1" target="GQzpuYuDoWvNrVL3nzEa-23" edge="1">
          <mxGeometry width="50" height="50" relative="1" as="geometry">
            <mxPoint x="280" y="260" as="sourcePoint" />
            <mxPoint x="330" y="210" as="targetPoint" />
          </mxGeometry>
        </mxCell>
        <mxCell id="GQzpuYuDoWvNrVL3nzEa-35" value="" style="endArrow=classic;startArrow=classic;html=1;rounded=0;entryX=0.5;entryY=1;entryDx=0;entryDy=0;" parent="1" source="GQzpuYuDoWvNrVL3nzEa-21" target="GQzpuYuDoWvNrVL3nzEa-23" edge="1">
          <mxGeometry width="50" height="50" relative="1" as="geometry">
            <mxPoint x="290" y="270" as="sourcePoint" />
            <mxPoint x="424" y="241" as="targetPoint" />
          </mxGeometry>
        </mxCell>
        <mxCell id="GQzpuYuDoWvNrVL3nzEa-38" value="" style="endArrow=classic;startArrow=classic;html=1;rounded=0;entryX=0.5;entryY=1;entryDx=0;entryDy=0;exitX=0.5;exitY=0;exitDx=0;exitDy=0;" parent="1" source="GQzpuYuDoWvNrVL3nzEa-22" target="GQzpuYuDoWvNrVL3nzEa-23" edge="1">
          <mxGeometry width="50" height="50" relative="1" as="geometry">
            <mxPoint x="290" y="270" as="sourcePoint" />
            <mxPoint x="424" y="241" as="targetPoint" />
          </mxGeometry>
        </mxCell>
        <mxCell id="GQzpuYuDoWvNrVL3nzEa-40" style="edgeStyle=orthogonalEdgeStyle;rounded=0;orthogonalLoop=1;jettySize=auto;html=1;entryX=1;entryY=0.5;entryDx=0;entryDy=0;" parent="1" source="GQzpuYuDoWvNrVL3nzEa-39" target="GQzpuYuDoWvNrVL3nzEa-23" edge="1">
          <mxGeometry relative="1" as="geometry" />
        </mxCell>
        <mxCell id="GQzpuYuDoWvNrVL3nzEa-39" value="权限访问控制&lt;br&gt;限流控制" style="ellipse;shape=cloud;whiteSpace=wrap;html=1;dashed=1;" parent="1" vertex="1">
          <mxGeometry x="530" y="161" width="120" height="80" as="geometry" />
        </mxCell>
        <mxCell id="f9g2CgTs31rNYREbiNiR-3" style="edgeStyle=orthogonalEdgeStyle;rounded=0;orthogonalLoop=1;jettySize=auto;html=1;entryX=1;entryY=0.5;entryDx=0;entryDy=0;" edge="1" parent="1" source="f9g2CgTs31rNYREbiNiR-2" target="GQzpuYuDoWvNrVL3nzEa-22">
          <mxGeometry relative="1" as="geometry" />
        </mxCell>
        <mxCell id="f9g2CgTs31rNYREbiNiR-2" value="节点服务包含：&lt;br&gt;配置api,&lt;br&gt;查询api,&lt;br&gt;构造api" style="ellipse;shape=cloud;whiteSpace=wrap;html=1;dashed=1;" vertex="1" parent="1">
          <mxGeometry x="690" y="239" width="170" height="99" as="geometry" />
        </mxCell>
      </root>
    </mxGraphModel>
  </diagram>
</mxfile>
